<svg xmlns="http://www.w3.org/2000/svg" viewBox="0 0 512 512" role="img" aria-labelledby="title desc">
  <title id="title">FORVZLA favicon vectorial</title>
  <desc id="desc">Favicon FORVZLA con fondo blanco: pin de ubicación, corazón y colores de Venezuela.</desc>
  <defs>
    <clipPath id="forvzla-pin-clip">
      <path d="M256 482C238 459 217 435 195 411C132 342 72 276 72 202C72 103 151 36 256 36C361 36 440 103 440 202C440 276 380 342 317 411C295 435 274 459 256 482Z"/>
    </clipPath>
  </defs>
  <rect width="512" height="512" rx="96" fill="#FFFFFF"/>
  <g transform="translate(256 256) scale(0.84) translate(-256 -256)">
  <g clip-path="url(#forvzla-pin-clip)">
    <rect width="512" height="512" fill="#FFCC00"/>
    <path d="M284 36H512V512H297C338 446 366 365 374 288C385 180 346 91 284 36Z" fill="#D80027"/>
    <path d="M45 162C107 213 158 273 206 334C243 381 284 421 335 458C340 462 343 468 343 475C343 482 339 489 333 492L260 532C221 486 182 438 143 388C96 328 53 268 13 206C6 196 9 184 18 177L45 162Z" fill="#0033A0"/>
  </g>
  <path d="M256 178C235 139 178 143 160 185C142 229 179 268 256 337C333 268 370 229 352 185C334 143 277 139 256 178Z" fill="#FFFFFF"/>
  <g clip-path="url(#forvzla-pin-clip)">
    <polygon points="105.17,222.54 108.16,228.40 114.74,228.29 110.09,232.94 112.23,239.17 106.37,236.18 101.11,240.14 102.13,233.64 96.74,229.86 103.24,228.83" fill="#FFFFFF"/>
      <polygon points="124.40,250.94 127.75,256.40 134.12,255.68 129.96,260.56 132.62,266.39 126.69,263.94 121.97,268.27 122.47,261.88 116.89,258.72 123.12,257.22" fill="#FFFFFF"/>
      <polygon points="145.67,279.31 149.43,284.27 155.55,283.10 151.99,288.21 154.99,293.66 149.04,291.86 144.77,296.40 144.65,290.18 139.01,287.53 144.89,285.48" fill="#FFFFFF"/>
      <polygon points="168.99,307.73 173.05,312.35 178.93,310.58 175.80,315.87 179.30,320.92 173.30,319.57 169.57,324.46 169.01,318.34 163.21,316.31 168.85,313.88" fill="#FFFFFF"/>
      <polygon points="193.37,336.21 197.71,340.37 203.29,338.13 200.67,343.55 204.52,348.17 198.56,347.35 195.36,352.44 194.29,346.52 188.46,345.05 193.76,342.21" fill="#FFFFFF"/>
      <polygon points="218.80,363.73 223.38,367.42 228.62,364.76 226.52,370.25 230.67,374.42 224.80,374.12 222.12,379.35 220.59,373.68 214.78,372.75 219.71,369.54" fill="#FFFFFF"/>
      <polygon points="244.35,389.36 249.06,392.50 253.87,389.53 252.35,394.98 256.66,398.64 251.01,398.87 248.86,404.10 246.89,398.80 241.25,398.37 245.69,394.86" fill="#FFFFFF"/>
      <polygon points="267.99,413.02 272.76,415.61 277.13,412.39 276.15,417.73 280.57,420.89 275.19,421.60 273.54,426.78 271.20,421.88 265.77,421.92 269.70,418.18" fill="#FFFFFF"/>
  </g>
  </g>
</svg>
